# xmcd
#
# Track frame offsets: 
#        182
#        13505
#        23817
#        36252
#        56137
#        74770
#        87835
#        105037
#        119382
#        134665
#
# Disc length: 2011 seconds
#
# Revision: 3
# Processed by: cddbd v1.5.2PL0 Copyright (c) Steve Scherf et al.
# Submitted via: ExactAudioCopy v1.0b3
#
DISCID=8507d90a
DTITLE=Roger Williams - Greatest Hits
DYEAR=1989
DGENRE=Easy Listening
TTITLE0=Autumn Leaves
TTITLE1=Born Free
TTITLE2=Lara's Theme
TTITLE3=Lady
TTITLE4=September Song
TTITLE5=More
TTITLE6=Misty
TTITLE7=The Way We Were
TTITLE8=Somewhere In Time
TTITLE9=Nadia's Theme
EXTD=
EXTT0=
EXTT1=
EXTT2=
EXTT3=
EXTT4=
EXTT5=
EXTT6=
EXTT7=
EXTT8=
EXTT9=
PLAYORDER=
